<svg width="24" height="24" viewBox="0 0 24 24" fill="none" xmlns="http://www.w3.org/2000/svg">
<path fill-rule="evenodd" clip-rule="evenodd" d="M8.99991 2.25C9.41413 2.25 9.74991 2.58579 9.74991 3V4.50565C10.6343 4.519 11.513 4.55589 12.3855 4.61576C13.295 4.67816 14.1976 4.7655 15.0927 4.87713C15.5037 4.92838 15.7954 5.30314 15.7442 5.71417C15.6929 6.1252 15.3181 6.41685 14.9071 6.3656C14.2476 6.28336 13.5838 6.21471 12.9161 6.15993C12.3253 8.46971 11.3059 10.6074 9.94785 12.4834C10.2647 12.8666 10.5978 13.236 10.9461 13.5905C11.2364 13.8859 11.2323 14.3607 10.9369 14.6511C10.6415 14.9414 10.1666 14.9373 9.87627 14.6419C9.5734 14.3337 9.28108 14.015 8.99991 13.6866C7.42878 15.522 5.50932 17.0501 3.34414 18.1686C2.97613 18.3587 2.52369 18.2145 2.33357 17.8465C2.14346 17.4785 2.28768 17.026 2.65568 16.8359C4.73747 15.7605 6.57204 14.2737 8.05199 12.4834C7.18589 11.2869 6.45748 9.984 5.89012 8.59774C5.73323 8.21439 5.91681 7.77643 6.30016 7.61954C6.68351 7.46265 7.12146 7.64622 7.27835 8.02957C7.74067 9.15919 8.31948 10.229 8.99991 11.2242C10.0648 9.66674 10.8809 7.92604 11.3911 6.05944C10.5991 6.01997 9.80187 6 8.99991 6C6.99905 6 5.02757 6.12433 3.09272 6.3656C2.68169 6.41685 2.30693 6.1252 2.25568 5.71417C2.20442 5.30314 2.49608 4.92838 2.90711 4.87713C4.66105 4.65841 6.4437 4.5329 8.24991 4.50565V3C8.24991 2.58579 8.5857 2.25 8.99991 2.25ZM15.7499 9C16.0413 9 16.3063 9.16878 16.4296 9.43284L21.6796 20.6828C21.8547 21.0582 21.6924 21.5045 21.3171 21.6796C20.9417 21.8548 20.4954 21.6925 20.3203 21.3172L19.1223 18.75H12.3776L11.1796 21.3172C11.0044 21.6925 10.5581 21.8548 10.1827 21.6796C9.8074 21.5045 9.64511 21.0582 9.82028 20.6828L15.0703 9.43284C15.1935 9.16878 15.4585 9 15.7499 9ZM13.0776 17.25H18.4223L15.7499 11.5235L13.0776 17.25Z" fill="#007AFF"/>
</svg>
