<svg width="20" height="19" viewBox="0 0 20 19" fill="none" xmlns="http://www.w3.org/2000/svg">
<path d="M9.9616 18.7244C4.86935 18.7244 0.636469 14.4915 0.636469 9.39927C0.636469 4.29787 4.86021 0.0741359 9.95246 0.0741359C15.0539 0.0741359 19.2867 4.29787 19.2867 9.39927C19.2867 14.4915 15.063 18.7244 9.9616 18.7244ZM6.88979 13.239C7.10007 13.239 7.29205 13.1659 7.43833 13.0196L9.9616 10.4781L12.494 13.0196C12.6312 13.1659 12.8231 13.239 13.0334 13.239C13.4631 13.239 13.8014 12.9008 13.8014 12.4802C13.8014 12.2699 13.7282 12.078 13.5728 11.9408L11.0404 9.40841L13.5819 6.86686C13.7465 6.70229 13.8105 6.53773 13.8105 6.32746C13.8105 5.90692 13.4722 5.57779 13.0517 5.57779C12.8506 5.57779 12.686 5.64179 12.5306 5.79721L9.9616 8.34791L7.4109 5.80635C7.26463 5.66922 7.10007 5.59608 6.88979 5.59608C6.46925 5.59608 6.14013 5.91606 6.14013 6.34574C6.14013 6.54688 6.21326 6.72972 6.35954 6.876L8.89195 9.40841L6.35954 11.95C6.21326 12.0871 6.14013 12.2791 6.14013 12.4802C6.14013 12.9008 6.46925 13.239 6.88979 13.239Z" fill="#FF3B30"/>
</svg>
