<svg width="26" height="26" viewBox="0 0 26 26" fill="none" xmlns="http://www.w3.org/2000/svg">
<g id="icon">
<rect x="0.5" y="0.5" width="25" height="25" rx="12.5" fill="black"/>
<rect x="0.5" y="0.5" width="25" height="25" rx="12.5" stroke="white"/>
<path id="&#244;&#128;&#134;&#132;" d="M7.19532 19.3594C7.46876 19.625 7.92189 19.625 8.18751 19.3594L13.1875 14.3594L18.1875 19.3594C18.4531 19.625 18.9141 19.6328 19.1797 19.3594C19.4453 19.0859 19.4453 18.6406 19.1797 18.375L14.1797 13.3672L19.1797 8.3672C19.4453 8.10157 19.4531 7.64845 19.1797 7.38282C18.9063 7.10939 18.4531 7.10939 18.1875 7.38282L13.1875 12.3828L8.18751 7.38282C7.92189 7.10939 7.46095 7.10157 7.19532 7.38282C6.9297 7.65626 6.9297 8.10157 7.19532 8.3672L12.1953 13.3672L7.19532 18.375C6.9297 18.6406 6.92189 19.0938 7.19532 19.3594Z" fill="white"/>
</g>
</svg>
